<svg width="70" height="69" viewBox="0 0 70 69" fill="none" xmlns="http://www.w3.org/2000/svg">
<circle cx="35.0001" cy="34.4492" r="25" transform="rotate(32 35.0001 34.4492)" fill="#3F7D58"/>
<path d="M48.3795 32.8814L39.533 24.229C39.2947 24.0039 38.9776 23.8814 38.6499 23.8879C38.3222 23.8944 38.0102 24.0293 37.781 24.2636C37.5518 24.4979 37.4238 24.8129 37.4246 25.1407C37.4254 25.4684 37.5549 25.7828 37.7852 26.016L44.4744 32.5584L22.4933 32.8023C22.1618 32.8059 21.8453 32.9412 21.6135 33.1782C21.3817 33.4152 21.2536 33.7346 21.2572 34.0661C21.2609 34.3976 21.3961 34.714 21.6331 34.9458C21.8702 35.1776 22.1895 35.3058 22.521 35.3021L44.5022 35.0583L37.9597 41.7475C37.8416 41.8641 37.7479 42.0031 37.6841 42.1563C37.6203 42.3095 37.5876 42.4739 37.588 42.6399C37.5884 42.8059 37.6219 42.9701 37.6865 43.123C37.751 43.276 37.8454 43.4145 37.964 43.5305C38.0827 43.6466 38.2233 43.7379 38.3776 43.799C38.5319 43.8602 38.6968 43.89 38.8628 43.8867C39.0287 43.8834 39.1924 43.8471 39.3441 43.7799C39.4959 43.7127 39.6328 43.6159 39.7467 43.4953L48.3991 34.6487C48.6309 34.4118 48.759 34.0924 48.7553 33.761C48.7516 33.4296 48.6164 33.1132 48.3795 32.8814Z" fill="white"/>
</svg>
