<svg width="138" height="138" viewBox="0 0 138 138" fill="none" xmlns="http://www.w3.org/2000/svg">
<circle cx="68.9992" cy="68.8984" r="50" transform="rotate(32 68.9992 68.8984)" fill="#3F7D58"/>
<path d="M86.4855 67.3731L74.6902 55.8365C74.3725 55.5364 73.9496 55.3731 73.5127 55.3818C73.0758 55.3904 72.6597 55.5703 72.3542 55.8828C72.0486 56.1952 71.878 56.6151 71.879 57.0521C71.8801 57.4891 72.0527 57.9083 72.3598 58.2192L81.2788 66.9425L51.9706 67.2676C51.5286 67.2725 51.1066 67.4528 50.7975 67.7688C50.4885 68.0848 50.3176 68.5107 50.3225 68.9527C50.3274 69.3947 50.5077 69.8166 50.8237 70.1257C51.1397 70.4348 51.5655 70.6056 52.0075 70.6007L81.3157 70.2756L72.5925 79.1946C72.435 79.3501 72.3101 79.5354 72.225 79.7397C72.1399 79.944 72.0964 80.1632 72.0969 80.3845C72.0974 80.6058 72.142 80.8248 72.2281 81.0287C72.3142 81.2325 72.44 81.4172 72.5982 81.572C72.7564 81.7267 72.9438 81.8484 73.1496 81.9299C73.3553 82.0115 73.5753 82.0512 73.7965 82.0468C74.0178 82.0424 74.236 81.994 74.4383 81.9044C74.6407 81.8148 74.8232 81.6858 74.9751 81.525L86.5117 69.7296C86.8206 69.4136 86.9914 68.9878 86.9865 68.5459C86.9816 68.104 86.8014 67.6821 86.4855 67.3731Z" fill="white"/>
</svg>
